<svg width="512" height="512" viewBox="0 0 512 512" fill="none" xmlns="http://www.w3.org/2000/svg">
<path d="M454.254 258.609L398.551 172.59C394.234 165.923 386.914 161.942 378.971 161.942H133.204C125.273 161.942 117.96 165.913 113.641 172.563L57.765 258.593C52.055 267.383 52.937 278.989 59.91 286.815L238.572 487.395C242.994 492.359 249.342 495.207 255.99 495.207C255.991 495.207 255.99 495.207 255.991 495.207C262.638 495.207 268.988 492.36 273.41 487.396L452.092 286.804C459.055 278.987 459.944 267.393 454.254 258.609ZM367.687 181.941L320.841 254.381L273.967 181.941H367.687ZM302.462 262.793H209.518L255.99 190.974L302.462 262.793ZM238.013 181.943L191.268 254.184L144.539 181.943H238.013V181.943ZM126.048 190.178L173.018 262.793H78.885L126.048 190.178ZM83.109 282.793H183.754L236.97 455.528L83.109 282.793ZM255.99 449.336L204.681 282.793H307.299L255.99 449.336ZM275.009 455.534L328.227 282.794H428.881L275.009 455.534ZM339.22 262.793L386.147 190.228L433.136 262.793H339.22Z" fill="#8C7568"/>
<path d="M30.333 262.793H10C4.478 262.793 0 267.27 0 272.793C0 278.316 4.478 282.793 10 282.793H30.333C35.855 282.793 40.333 278.316 40.333 272.793C40.333 267.27 35.855 262.793 30.333 262.793Z" fill="#8C7568"/>
<path d="M502 262.793H481.667C476.145 262.793 471.667 267.27 471.667 272.793C471.667 278.316 476.145 282.793 481.667 282.793H502C507.522 282.793 512 278.316 512 272.793C512 267.27 507.522 262.793 502 262.793Z" fill="#8C7568"/>
<path d="M437.146 91.826C433.24 87.921 426.91 87.921 423.003 91.826L389.786 125.043C385.881 128.948 385.881 135.28 389.786 139.185C391.74 141.138 394.299 142.114 396.858 142.114C399.418 142.114 401.976 141.137 403.929 139.185L437.146 105.968C441.051 102.063 441.051 95.732 437.146 91.826Z" fill="#8C7568"/>
<path d="M122.646 124.865L89.43 91.647C85.526 87.742 79.196 87.742 75.287 91.647C71.382 95.552 71.382 101.884 75.287 105.789L108.504 139.006C110.457 140.959 113.016 141.935 115.575 141.935C118.134 141.935 120.693 140.958 122.646 139.006C126.551 135.102 126.551 128.769 122.646 124.865Z" fill="#8C7568"/>
<path d="M256.254 16.793C250.732 16.793 246.254 21.27 246.254 26.793V91.961C246.254 97.484 250.731 101.961 256.254 101.961C261.776 101.961 266.254 97.484 266.254 91.961V26.793C266.254 21.271 261.776 16.793 256.254 16.793Z" fill="#8C7568"/>
<path d="M263.319 118.72C261.46 116.86 258.88 115.79 256.25 115.79C253.62 115.79 251.04 116.86 249.18 118.72C247.32 120.58 246.25 123.16 246.25 125.79C246.25 128.43 247.319 131 249.18 132.86C251.04 134.73 253.62 135.79 256.25 135.79C258.88 135.79 261.46 134.73 263.319 132.86C265.189 131 266.25 128.42 266.25 125.79C266.25 123.16 265.189 120.581 263.319 118.72Z" fill="#8C7568"/>
</svg>
