<svg width="512" height="512" viewBox="0 0 512 512" fill="none" xmlns="http://www.w3.org/2000/svg">
<path d="M145.649 185.302C141.744 181.398 135.415 181.398 131.509 185.302L131.405 185.406C127.5 189.311 127.5 195.642 131.405 199.547C133.358 201.499 135.916 202.476 138.475 202.476C141.034 202.476 143.592 201.499 145.545 199.547L145.649 199.443C149.553 195.539 149.553 189.207 145.649 185.302Z" fill="#8C7568"/>
<path d="M439.049 233.811H413.604C412.239 228.663 410.642 223.525 408.854 218.527C406.994 213.328 401.27 210.622 396.071 212.482C390.872 214.342 388.165 220.065 390.026 225.265C391.716 229.989 393.215 234.854 394.482 239.723C396.639 248.017 404.153 253.809 412.755 253.809H437.952V312.145H412.696C404.105 312.145 396.594 317.927 394.428 326.208C390.476 341.333 384.452 355.843 376.524 369.333C372.176 376.728 373.391 386.144 379.476 392.228L397.369 410.12L356.12 451.369L338.166 433.414C332.092 427.343 322.689 426.123 315.3 430.447C301.819 438.338 287.328 444.329 272.232 448.255C263.938 450.411 258.145 457.926 258.145 466.528V491.952H199.809V466.471C199.809 457.879 194.026 450.368 185.745 448.202C170.672 444.263 156.206 438.265 142.752 430.373C135.36 426.037 125.949 427.252 119.869 433.333L101.834 451.369L60.585 410.12L78.621 392.085C84.7 386.006 85.917 376.596 81.581 369.202C73.689 355.749 67.69 341.283 63.752 326.211C61.589 317.929 54.076 312.145 45.483 312.145H19.998V253.809H45.422C54.025 253.809 61.539 248.016 63.695 239.722C67.621 224.625 73.612 210.134 81.503 196.654C85.829 189.265 84.608 179.862 78.535 173.787L60.581 155.834L101.83 114.585L119.722 132.478C125.806 138.562 135.222 139.777 142.618 135.43C156.107 127.501 170.617 121.478 185.743 117.526C194.023 115.361 199.805 107.849 199.805 99.258V74H258.141V99.197C258.141 107.8 263.933 115.313 272.227 117.47C276.986 118.708 281.74 120.168 286.356 121.809C291.557 123.661 297.277 120.939 299.126 115.736C300.975 110.533 298.256 104.815 293.053 102.966C288.177 101.233 283.163 99.681 278.139 98.349V72.902C278.139 62.48 269.661 54.002 259.239 54.002H198.709C188.287 54.002 179.809 62.48 179.809 72.902V98.407C163.509 102.75 147.857 109.248 133.261 117.733L115.195 99.666C107.825 92.298 95.836 92.298 88.466 99.666L45.664 142.468C38.295 149.837 38.295 161.828 45.664 169.197L63.794 187.325C55.349 201.911 48.886 217.54 44.572 233.811H18.9C8.478 233.811 0 242.289 0 252.711V313.241C0 323.663 8.478 332.141 18.9 332.141H44.63C48.959 348.387 55.429 363.989 63.875 378.545L45.664 396.756C38.295 404.125 38.295 416.116 45.664 423.485L88.466 466.287C95.836 473.655 107.825 473.655 115.195 466.287L133.405 448.075C147.962 456.521 163.565 462.992 179.809 467.319V493.05C179.809 503.472 188.287 511.95 198.709 511.95H259.239C269.661 511.95 278.139 503.471 278.139 493.05V467.378C294.41 463.065 310.038 456.602 324.625 448.156L342.753 466.286C350.123 473.654 362.112 473.654 369.482 466.286L412.284 423.484C419.653 416.115 419.653 404.124 412.284 396.755L394.217 378.689C402.702 364.094 409.2 348.44 413.543 332.141H439.048C449.47 332.141 457.948 323.663 457.948 313.241V252.711C457.949 242.29 449.471 233.811 439.049 233.811Z" fill="#8C7568"/>
<path d="M509.561 78.397C504.671 66.569 493.682 59.201 480.883 59.168L452.952 59.095L452.879 31.164C452.846 18.365 445.478 7.377 433.65 2.486C421.818 -2.401 408.844 0.172998 399.782 9.213L332.985 75.844C331.104 77.72 330.047 80.268 330.047 82.923V167.858L319.257 178.648C296.364 158.816 268.097 147.471 238.971 145.342V133.661C238.971 128.14 234.493 123.662 228.972 123.662C223.451 123.662 218.973 128.139 218.973 133.661V145.324C201.574 146.582 184.239 151.145 167.918 159.197C162.967 161.64 160.933 167.635 163.376 172.588C165.818 177.539 171.814 179.573 176.767 177.131C190.27 170.47 204.584 166.612 218.974 165.393V174.323C218.974 179.844 223.452 184.322 228.973 184.322C234.494 184.322 238.972 179.845 238.972 174.323V165.384C262.902 167.43 286.085 176.77 305.081 192.826L276.615 221.292C263.427 211.083 246.904 204.986 228.974 204.986C185.969 204.986 150.983 239.972 150.983 282.977C150.983 325.982 185.969 360.968 228.974 360.968C271.979 360.968 306.965 325.982 306.965 282.977C306.965 265.096 300.903 248.614 290.744 235.444L319.215 206.973C335.395 226.156 344.482 249.319 346.477 272.978H337.629C332.108 272.978 327.63 277.455 327.63 282.977C327.63 288.498 332.108 292.976 337.629 292.976H346.477C344.217 319.775 332.865 345.945 312.404 366.406C291.943 386.868 265.773 398.219 238.974 400.479V391.632C238.974 386.111 234.497 381.633 228.975 381.633C223.454 381.633 218.976 386.11 218.976 391.632V400.479C192.177 398.219 166.007 386.867 145.546 366.406C125.44 346.301 113.794 320.113 111.458 292.976H120.32C125.841 292.976 130.319 288.499 130.319 282.977C130.319 277.456 125.842 272.978 120.32 272.978H111.431C112.587 259.137 116.18 245.373 122.361 232.355C124.73 227.367 122.606 221.402 117.617 219.035C112.629 216.664 106.664 218.789 104.297 223.778C96.818 239.532 92.58 256.221 91.388 272.978H79.66C74.139 272.978 69.661 277.455 69.661 282.977C69.661 288.498 74.138 292.976 79.66 292.976H91.415C93.798 325.316 107.477 356.617 131.407 380.547C155.098 404.237 185.887 418.25 218.978 420.604V432.294C218.978 437.815 223.455 442.293 228.977 442.293C234.498 442.293 238.976 437.816 238.976 432.294V420.604C272.067 418.25 302.856 404.238 326.547 380.547C350.237 356.856 364.25 326.067 366.604 292.976H378.294C383.815 292.976 388.293 288.499 388.293 282.977C388.293 277.456 383.816 272.978 378.294 272.978H366.604C364.487 243.221 352.942 215.328 333.41 192.782L344.193 181.999H429.128C431.784 181.999 434.331 180.942 436.207 179.061L502.838 112.264C511.874 103.203 514.452 90.225 509.561 78.397ZM228.974 340.971C196.997 340.971 170.98 314.955 170.98 282.977C170.98 250.999 196.996 224.983 228.974 224.983C241.384 224.983 252.886 228.914 262.328 235.578L244.616 253.29C240.711 257.195 240.711 263.526 244.616 267.431C246.569 269.383 249.127 270.36 251.686 270.36C254.245 270.36 256.803 269.383 258.756 267.431L276.452 249.735C283.067 259.156 286.967 270.616 286.967 282.976C286.968 314.954 260.952 340.971 228.974 340.971ZM350.046 87.072L413.906 23.372C418.777 18.512 424.402 20.303 426.01 20.968C427.617 21.632 432.864 24.336 432.882 31.217L432.97 64.937L378.289 119.618L350.046 147.861V87.072V87.072ZM488.676 98.142L424.976 162H364.188L392.431 133.757L447.112 79.076L480.832 79.164C487.713 79.182 490.417 84.429 491.081 86.036C491.745 87.646 493.536 93.27 488.676 98.142Z" fill="#8C7568"/>
<path d="M234.804 277.238C232.953 275.377 230.374 274.308 227.735 274.308C225.105 274.308 222.526 275.377 220.666 277.238C218.807 279.098 217.736 281.678 217.736 284.307C217.736 286.947 218.806 289.516 220.666 291.375C222.526 293.245 225.106 294.306 227.735 294.306C230.375 294.306 232.944 293.245 234.804 291.375C236.674 289.516 237.734 286.937 237.734 284.307C237.734 281.677 236.674 279.097 234.804 277.238Z" fill="#8C7568"/>
</svg>
